<?xml version="1.0" encoding="utf-8"?>
<!-- Generator: Adobe Illustrator 19.2.1, SVG Export Plug-In . SVG Version: 6.00 Build 0)  -->
<svg version="1.1" id="Фон__x2B__Уровни_1_xA0_Изображение"
	 xmlns="http://www.w3.org/2000/svg" xmlns:xlink="http://www.w3.org/1999/xlink" x="0px" y="0px" viewBox="0 0 240 238.1"
	 style="enable-background:new 0 0 240 238.1;" xml:space="preserve">
<style type="text/css">
	.st0{fill:#F0F0F0;}
	.st1{fill:#FEFEFE;}
	.st2{fill:#0F0F0F;}
	.st3{fill:#0B0B0B;}
	.st4{fill:#131313;}
	.st5{fill:#1C1C1C;}
	.st6{fill:#292929;}
	.st7{fill:#141414;}
	.st8{fill:#1E1E1E;}
	.st9{fill:#1B1B1B;}
	.st10{fill:#191919;}
	.st11{fill:#2A2A2A;}
	.st12{fill:#111111;}
	.st13{fill:#171717;}
	.st14{fill:#0E0E0E;}
	.st15{fill:#1D1D1D;}
	.st16{fill:#0C0C0C;}
	.st17{fill:#101010;}
	.st18{fill:#121212;}
	.st19{fill:#363636;}
	.st20{fill:#1F1F1F;}
	.st21{fill:#1A1A1A;}
	.st22{fill:#FDFDFD;}
	.st23{fill:#F6F6F6;}
</style>
<g>
	<path d="M114.1,196.7c-6.6-0.5-12.7-0.1-18.8,0.3c-3.1,0.2-6.2,0.9-9.2,1.2c-1.9,0.2-3.9,0.7-5.8,1.4c-1.2,0.5-2.5,0.7-3.7,1
		c-2.1,0.5-3.9,1.7-6,2.3c-0.7,0.2-0.6,0.8-0.3,1.3c3,5.7,0.6,10.5-2.9,14.3c-1.7,1.8-3.6,3.6-5.3,5.4c-2.6,2.8-5.8,3.9-9.6,3.7
		c-3.5-0.1-6-1.9-8.3-4.1c-10-9.7-20-19.5-29.9-29.3c-1.8-1.8-3.4-3.6-3.9-6.2c-0.8-4.4,0.4-8.2,3.7-11.3c2.2-2.1,4.2-4.2,6.3-6.4
		c1.9-2.1,4.3-3.4,7.4-3.2c1.5,0.1,2.9,0.5,4.3,0.6c0.6,0.1,1.1,0.3,1.5,0.6c1.1,0.7,1.4,0.7,2.1-0.4c0.7-1.1,1.2-2.3,1.7-3.4
		c1.7-3.7,4-7,6.3-10.4c2.6-3.9,5.7-7.2,9.1-10.3c4.4-4,9.4-7.1,15.1-9c5.6-1.8,11.3-2.4,17.1-1.7c4,0.5,7.9,1.4,11.7,2.6
		c2.7,0.8,5.4,1.7,8.2,2.1c1.6,0.2,3.2,0.8,4.8,1.1c6.2,1.1,12.3,2.2,18.6,2.6c0.8,0.1,1.6,0.1,2.4,0.4c1.3,0.5,2.3,0,3.4-0.7
		c4.7-3.4,9.7-6.1,15.1-8.1c3.5-1.3,7.1-2.2,10.8-2.8c3.3-0.5,6.6-0.8,9.9-0.5c1.2,0.1,2.5,0.2,3.7,0.6c2.2,0.6,4-0.2,5.8-1.1
		c6.3-3.2,12.9-4.4,20-3c2.3,0.5,4.5,1.2,6.7,2.2c0.8,0.4,1.6,0.4,2.3,0c2.4-1.2,5.1-1.6,7.7-2.3c0.5-0.1,1-0.2,1.4-0.1
		c4.5,0.6,8.5,2.2,11.3,6c2.5,3.4,2.8,8.6-0.5,12.4c-1.5,1.6-3.2,2.9-4.8,4.3c-1.4,1.3-2.8,2.4-4.4,3.2c-2,1-3.7,2.6-5.8,3.6
		c-3.5,1.7-6.8,4-10.5,5.3c-1.1,0.4-2.1,1.4-3.2,2c-1.6,0.9-3.4,1.4-5,2.5c-3.3,2.3-6.9,4-10.4,5.8c-5.1,2.7-10.2,5.5-15.4,8.2
		c-5,2.6-9.9,5.3-15,7.7c-5.3,2.6-10.6,5.2-16,7.4c-4.4,1.8-9,3-13.8,2.8C120.3,196.8,116.9,196.7,114.1,196.7z"/>
	<path d="M57.2,94.9c1.1-0.2,3,0.4,4.9-0.1c2.2-0.5,4.5-2.8,4.6-5c0.1-1.4-0.4-2.8-0.6-4.2c-0.2-1.6-0.2-3.1,1.2-4.2
		c0.7-0.6,1.6-0.8,2.4-0.8c1-0.1,1.9-0.1,2.9-0.1c1.4,0,1.7-0.4,1.3-1.8c-0.3-1.1-0.4-2.1,0.1-3.2c1-2.2,2.6-3.2,5-2.9
		c1.1,0.1,2.1,0.6,3.2,0.5c2.1-0.3,4-1.1,5.4-2.7c0.9-1,1.8-1.9,2.8-2.8c0.8-0.7,0.7-1.2-0.1-1.8c-1.2-1-2.3-2-2.5-3.8
		c-0.1-1.6,0.1-3,1.4-4c0.8-0.6,1.6-1.3,2.6-1.8c0.9-0.5,1.1-1.1,0.7-1.9c-1.2-3-1.1-6.1-1.1-9.2c0-8.2,3.1-15.2,8.6-21.2
		c3.4-3.8,7.7-6.4,12.5-8.2c4.9-1.9,10.1-2.3,15.2-1.7c4.7,0.5,9,2.2,13,4.7c6.2,4,10.7,9.4,13.1,16.3c1.8,5.3,2.7,10.7,1.4,16.5
		c-1.5,6.9-4.5,12.9-9.6,17.8c-0.1,0.1-0.2,0.2-0.3,0.3c-1.8,1.5-1.8,1.6,0.4,2.6c1.2,0.6,2.5,1.1,3.7,1.6c0.8,0.3,1.3,0,1.5-0.6
		c1-3,2.2-5.9,3.1-8.9c1-3.3,5-5.8,8.4-4c3.8,2,7.2,4.6,10.7,6.9c6.4,4.2,12.7,8.4,19,12.6c1.7,1.1,2.6,3.1,2,5.1
		c-0.5,1.8-1.8,2.8-3.6,3.2c-1.1,0.2-1.2,0.8-0.9,1.6c0.8,2.3,1.6,4.6,2.4,6.9c0.8,2.3,1.5,4.5,2.2,6.8c0.1,0.2,0.1,0.5,0.2,0.7
		c2.1,3.2-0.6,7.4-3.9,8.5c-4.7,1.5-9.4,3-14,4.7c-3,1.1-6.1,1.9-9.2,2.9c-1.5,0.5-3,1.1-4.5,1.6c-2.4,0.9-5.8-0.7-7.1-3.3
		c-1.1-2.4-1.7-4.9-2.6-7.4c-1-2.8-2-5.7-2.9-8.6c-0.3-0.9-0.8-0.8-1.5-0.5c-3.1,1.2-5.3,0.2-6.5-2.9c-0.3-0.7-0.3-1.3,0-2
		c2-5.5,4-11,6-16.5c0.1-0.2,0.1-0.4,0.2-0.6c0.5-1.6,0.4-1.5-1.1-2.1c-2.4-0.8-4.7-1.8-6.7-3.3c-0.8-0.6-1.5-0.6-2.3-0.2
		c-5.8,3.2-12.1,4.2-18.6,3.6c-1.5-0.1-3.1-0.5-4.6-0.9c-1-0.3-1.5,0.1-2,0.8c-0.6,0.9-1.2,1.8-1.9,2.6c-1.8,1.9-4,1.9-6.3,0
		c0,0-0.1-0.1-0.1-0.1c-0.7-0.5-1-1.7-2-1.6c-0.8,0.1-1.2,1.1-1.8,1.6c-6.4,6.4-12.8,12.8-19.3,19.2c-5.4,5.4-10.9,10.8-16.3,16.3
		c-2.3,2.4-5,3.5-8.1,4c-1,0.2-2,0.3-2.9,0.6c-2.5,0.9-4.3-0.2-5.9-2c-1.2-1.2-1-2.8-1.3-4.3c-0.5-2.7-1.2-5.4-1.4-8.1
		c-0.1-1.2-0.4-2.4-0.7-3.6c-0.7-2.4,2-7,5-7.3C52.3,95.1,54.3,95.2,57.2,94.9z"/>
	<path class="st0" d="M222.1,151.9c0,0.1,0,0.2,0,0.3c0,0-0.1,0.1-0.2,0.1c0-0.1-0.1-0.2-0.1-0.3C221.9,152,222,152,222.1,151.9z"/>
	<path class="st1" d="M112.4,192.4c-7.1-0.7-14.2-0.2-21.2,0.4c-2.5,0.2-5,0.7-7.4,1.2c-1.8,0.4-3.7,0.9-5.5,1.3
		c-2.2,0.5-4.4,1.4-6.6,2.2c-1.5,0.5-2.9,1.2-4.4,1.9c-0.6,0.3-0.9,0.1-1.3-0.3c-5.2-5.1-10.3-10.2-15.5-15.2
		c-3.6-3.5-7.3-7.1-11-10.5c-0.9-0.8-1-1.5-0.5-2.7c1.5-3.5,3.5-6.8,5.2-10.2c0.7-1.5,1.9-2.7,3-4c1.4-1.7,2.5-3.7,4-5.3
		c2-2.1,4.1-4.2,6.4-6c2.9-2.3,6.1-4.2,9.4-5.6c5.4-2.3,11.2-2.7,17-2.3c3.7,0.2,7.3,1.1,10.7,2.2c4.1,1.3,8.2,2.4,12.3,3.3
		c2.7,0.6,5.4,1,8.1,1.4c4.4,0.6,8.9,1.1,13.3,1.7c2.6,0.4,5.2,0.7,7.8,0.7c1.7,0,3.3,0.9,5,0.8c3-0.2,5.9,0.8,8.8,1.3
		c2.6,0.4,5.2,0.8,7.7,1.6c1.9,0.7,3.7,1.7,4.9,3.4c0.2,0.2,0.3,0.5,0.3,0.7c0.2,1.9,0.4,3.7,0.1,5.6c-0.2,1.3-2.1,2.8-3.3,3.2
		c-2.2,0.8-4.6,0.3-6.8,0.8c-4.8,1.2-9.8,0.6-14.6,0.9c-2.1,0.1-4.2,0.4-6.3,0.7c-1.1,0.2-2.1-0.2-3.1-0.1c-2.3,0.2-4.7,0.3-7,0.2
		c-2.6-0.1-5.3,0.1-7.8-0.8c-0.3-0.1-0.6-0.1-0.9-0.1c-2.5,0.2-4.9-0.2-7.2-0.9c-1.4-0.4-2.8,0.1-4.1,0.3c-3.7,0.5-7.3,1.3-10.3,3.8
		c-0.9,0.8-2.1,1.1-3,2c-0.8,0.8-0.8,1.7-0.4,2.7c0.4,0.9,1.3,1.3,2.3,1.2c0.4,0,0.8-0.2,1.1-0.5c2.5-2.1,5.4-3.2,8.4-4.3
		c2.4-0.9,4.7-0.9,7.1-0.2c1.1,0.3,2.3,0.4,3.4,0.4c1.6,0,3.3,0.1,4.9,0.6c0.4,0.1,0.8,0.2,1.2,0.2c2.7,0,5.4,0,8.1-0.1
		c1.1,0,2,0.5,3.1,0.3c3.2-0.3,6.4-0.6,9.6-0.9c2.1-0.2,4.2-0.1,6.3-0.1c4,0,7.9-0.7,11.8-1c2.6-0.2,5-1.1,7.4-1.7
		c1.7-0.5,2.8-2,3.7-3.6c1.5-2.6,1.5-5.3,1-8.1c-0.3-1.4,0.1-2,1.3-2.7c8-4.4,16-8.8,24.2-12.8c5.5-2.7,11.1-5.4,16.8-7.6
		c1.9-0.7,3.9-1.3,5.9-1.9c2-0.5,3.7,0.5,5.4,1.2c1.1,0.4,1.9,1.3,2.8,2.1c2.8,2.7,2,6.8-0.9,9c-1.1,0.8-2.1,1.5-3.1,2.4
		c-2.2,2.1-4.8,3.7-7.4,5.1c-2.9,1.6-5.7,3.4-8.6,4.8c-2,1-4.2,1.5-6,2.7c-1.2,0.8-2.3,1.6-3.6,2.2c-4.3,1.9-8.1,4.6-12.2,6.7
		c-3.1,1.6-6.2,3.2-9.3,5c-3.9,2.2-7.9,4.2-11.9,6.3c-3.2,1.7-6.4,3.3-9.7,4.9c-4,2-7.9,4-11.9,5.7c-3.8,1.5-7.5,3.4-11.6,3.9
		c-2.9,0.3-5.8,0.1-8.6,0.1C117,192.4,114.7,192.4,112.4,192.4z"/>
	<path class="st1" d="M53.1,223c-2,0.2-3.4-0.9-4.7-2.1c-3.8-3.6-7.6-7.3-11.4-10.9c-6.7-6.3-13.2-12.8-19.8-19.1
		c-2.5-2.3-2.7-5.1-2.1-8.1c0.3-1.4,1.6-2.4,2.6-3.5c1.9-2,3.9-4,5.9-6c2.6-2.5,6.5-2.5,9.2-0.1c10.8,10.1,21.4,20.4,31.9,30.8
		c1.6,1.6,2.8,3.5,2.5,5.8c-0.2,1.7-1,3.2-2.2,4.4c-2.2,2.2-4.3,4.5-6.5,6.7C56.9,222.4,55.2,223.1,53.1,223z"/>
	<path class="st1" d="M191.8,130c2.8,0,5,0.2,7,0.5c0.4,0.1,0.8,0.1,1.1,0.5c0.3,0.5,0.2,0.8-0.4,1c-5,1.8-9.6,4.4-14.3,6.8
		c-3.4,1.8-6.8,3.6-10.2,5.4c-2.9,1.6-5.8,3.2-8.7,4.8c-0.7,0.4-1.1,0.4-1.7-0.1c-2.3-1.7-4.8-2.8-7.6-3.2c-0.3,0-0.6-0.1-0.6-0.4
		c-0.1-0.3,0.2-0.5,0.4-0.6c0.6-0.5,1.4-0.5,2.1-0.9c3.3-2.1,6.9-3.6,10.4-5.3c4.4-2.1,8.9-4.2,13.4-6.2
		C185.9,130.8,189.1,129.7,191.8,130z"/>
	<path class="st1" d="M148.2,144c-0.9-0.2-1.8-0.5-2.7-0.6c-1.6-0.3-3.2-0.3-4.8-0.3c-0.3,0-0.7,0-0.8-0.3c-0.1-0.4,0.2-0.5,0.5-0.7
		c3.6-2,7.2-4,11.2-5.4c3.2-1.1,6.5-1.9,9.8-2.3c1.7-0.3,3.5-0.4,5.2-0.5c0.3,0,0.8-0.1,0.9,0.4c0.1,0.5-0.3,0.6-0.6,0.7
		c-6.1,2.6-11.9,5.8-17.9,8.8C148.8,143.8,148.5,144,148.2,144z"/>
	<path class="st2" d="M36.4,169c0.4,0.2,0.5,0.4,0.5,0.7c0.1,0.5,0,0.9-0.5,1.2c-0.1,0.1-0.3,0.1-0.3,0c-0.4-0.4,0.1-0.7,0.1-1.1
		C36.2,169.6,36.3,169.3,36.4,169z"/>
	<path class="st3" d="M25.2,169.7c0.3-0.5,0.7-0.9,1.3-1.3c0.2-0.1,0.5-0.2,0.6,0.1c0.1,0.2-0.1,0.4-0.2,0.5
		C26.4,169.4,25.8,169.6,25.2,169.7L25.2,169.7z"/>
	<path class="st4" d="M111.4,166.8c0.1-0.1,0.1-0.1,0.2-0.2c0.5-0.1,1,0,1.4,0.3c0.1,0.1,0,0.3-0.1,0.4
		C112.3,167.6,111.8,167.3,111.4,166.8z"/>
	<path class="st5" d="M44.9,156c-0.1,0.7-0.2,1.4-0.4,2.4c-0.5-1-0.2-1.7-0.3-2.4C44.4,155.8,44.6,155.8,44.9,156z"/>
	<path class="st6" d="M218,149.1c-0.1,0.3,0,0.8-0.5,0.8c-0.3,0-0.3-0.3-0.3-0.6c0-0.3,0.1-0.7,0.5-0.8
		C218.1,148.5,218,148.9,218,149.1z"/>
	<path class="st7" d="M49,150.9c-0.3-0.2-0.5-0.5-0.5-0.9c0-0.2,0.1-0.4,0.4-0.3c0.3,0.2,0.4,0.5,0.4,0.9
		C49.4,150.9,49.2,151,49,150.9z"/>
	<path class="st8" d="M223.4,144.4c0.4,0.5,0.4,1.1,0,1.8C223.1,145.5,223.2,144.9,223.4,144.4z"/>
	<path class="st9" d="M202.5,158.1c0,0.2-0.1,0.5-0.4,0.5c-0.4,0-0.3-0.4-0.3-0.6c0-0.2,0.1-0.5,0.4-0.5
		C202.5,157.6,202.5,157.9,202.5,158.1z"/>
	<path class="st10" d="M181.1,168.4c0.1,0.9,0.2,1.5-0.3,2.4C180.7,169.9,180.7,169.3,181.1,168.4z"/>
	<path class="st11" d="M93.5,170.2c0,0.3-0.2,0.4-0.4,0.3c-0.3-0.1-0.5-0.3-0.5-0.6c0-0.2,0.1-0.3,0.3-0.3
		C93.2,169.6,93.4,169.8,93.5,170.2z"/>
	<path class="st12" d="M31.1,170.4c-0.6-0.2-0.8-0.5-0.7-1c0-0.1,0.2-0.2,0.3-0.1C31,169.5,31,169.9,31.1,170.4z"/>
	<path class="st13" d="M213.8,151.4c0.4-0.1,0.7,0.1,0.8,0.5c0.1,0.2-0.1,0.3-0.2,0.3C214.1,152.1,213.8,151.9,213.8,151.4z"/>
	<path class="st14" d="M101.1,166.4c0.2,0,0.4,0.1,0.5,0.3c0.1,0.2-0.1,0.4-0.3,0.4c-0.2,0-0.4-0.1-0.4-0.3
		C100.8,166.6,100.9,166.5,101.1,166.4z"/>
	<path class="st15" d="M122,167.5c0.2,0,0.3,0.2,0.3,0.4c0,0.2-0.1,0.4-0.4,0.3c-0.2,0-0.2-0.2-0.2-0.3
		C121.7,167.7,121.8,167.5,122,167.5z"/>
	<path class="st3" d="M196.4,161.6c-0.2-0.5,0.1-0.9,0.3-1.3C196.8,160.8,196.9,161.2,196.4,161.6z"/>
	<path class="st16" d="M159.1,148.6c0,0.2-0.1,0.3-0.3,0.3c-0.2,0-0.4,0-0.4-0.3c0-0.2,0.2-0.2,0.3-0.3
		C158.9,148.4,159,148.4,159.1,148.6z"/>
	<path class="st17" d="M188.2,166.4c0,0.2-0.2,0.4-0.4,0.4c-0.2,0-0.3,0-0.4-0.2c0-0.2,0.2-0.3,0.4-0.4
		C188,166.2,188.2,166.2,188.2,166.4z"/>
	<path class="st18" d="M160.9,164.9c0.1,0,0.2,0.1,0.2,0.2c0,0.2,0,0.4-0.3,0.5c0,0-0.2-0.1-0.2-0.2
		C160.6,165.1,160.7,165,160.9,164.9z"/>
	<path class="st19" d="M44.9,156c-0.2,0.1-0.5,0.1-0.7,0c0-0.3,0-0.6,0-0.9c0.6-0.4,0.5,0.3,0.7,0.5C44.9,155.7,44.9,155.8,44.9,156
		z"/>
	<path class="st16" d="M209.1,154.6c0.4-0.2,0.6,0,0.7,0.3c0,0-0.1,0.2-0.1,0.2C209.4,155.1,209.1,155,209.1,154.6z"/>
	<path class="st20" d="M157.3,166.7c0,0.2-0.1,0.3-0.3,0.3c-0.2,0-0.2-0.2-0.2-0.3c0-0.2,0.1-0.3,0.2-0.3
		C157.2,166.4,157.2,166.5,157.3,166.7z"/>
	<path class="st4" d="M125.5,168.4c0,0.1-0.1,0.2-0.2,0.2c-0.2,0-0.3-0.1-0.2-0.3c0-0.1,0.1-0.3,0.1-0.3
		C125.4,168,125.5,168.2,125.5,168.4z"/>
	<path class="st5" d="M44.9,155.5c-0.2-0.2-0.5-0.3-0.7-0.5C44.7,154.7,44.7,154.7,44.9,155.5z"/>
	<path class="st21" d="M188.7,164.7c0,0.1,0.1,0.2,0.1,0.3c0,0-0.1,0.1-0.1,0.1c0-0.1-0.1-0.2-0.1-0.3
		C188.5,164.8,188.6,164.8,188.7,164.7z"/>
	<path class="st3" d="M25.2,169.7c-0.1,0.1-0.1,0.2-0.2,0.3c-0.1,0.1-0.2,0.1-0.3,0.2C24.7,169.7,25,169.8,25.2,169.7L25.2,169.7z"
		/>
	<path class="st1" d="M123.7,73.5c-3.5,0.2-6.7-0.3-9.7-1.6c-1-0.4-1.9-0.2-2.5,0.7c-0.9,1.2-1.7,2.3-2.5,3.5c-0.7,1-1,1-1.8,0.1
		c-0.7-0.8-1.4-1.5-2.1-2.2c-1.4-1.3-2.7-1.3-4.1,0c-3.5,3.5-7,6.9-10.5,10.4c-9.2,9.2-18.4,18.4-27.6,27.5
		c-0.5,0.5-0.9,0.9-1.3,1.4c-1.3,1.4-3,1.9-4.8,2.1c-1.1,0.1-2.1,0.2-3.2,0.6c-0.7,0.3-1.2,0.1-1.5-0.7c-0.2-0.6-0.5-1.1-0.5-1.7
		c-0.3-3.9-1.3-7.7-1.9-11.6c-0.3-1.7,0.8-2.8,2.8-2.9c2.4-0.1,4.8-0.2,7.2,0c4.8,0.3,8.1-1.7,10.5-5.8c0.8-1.5,0.9-3,0.9-4.6
		c0-0.9-0.2-1.8-0.4-2.7c-0.2-1.3,0-1.5,1.2-1.5c0.9,0,1.8,0,2.6,0c2.8-0.1,4.5-2.3,4.1-5c-0.4-2.6-0.4-2.6,2.2-2.3
		c4.1,0.4,7.5-1.1,10.3-4c1.5-1.5,3-3,4.5-4.5c1.5-1.6,1.6-2.6,0.1-4.2c-0.8-0.8-1.6-1.6-2.5-2.4c-0.6-0.6-1-1,0.1-1.6
		c1.2-0.6,2.3-1.5,3.4-2.3c0.9-0.6,1.2-1.4,0.9-2.5c-0.4-2.1-1.1-4.2-1.5-6.4c-0.5-2.9-0.3-5.6,0.2-8.4c1.2-6.3,4.2-11.5,9-15.8
		c2-1.8,4.1-3.4,6.5-4.3c3-1.2,5.9-2.6,9.3-2.4c1.3,0.1,2.6,0.1,3.8,0c4.3-0.2,8.1,1.3,11.7,3.2c5.2,2.6,9,6.7,11.5,11.8
		c2.8,5.6,3.9,11.5,2.5,17.8c-1.4,6.6-4.5,12.1-9.7,16.4c-0.8,0.7-1.3,0.6-2-0.1c-3.4-3.6-5.3-8-6.1-12.8c-0.3-2.1-0.8-4.2-0.8-6.3
		c0-1,0.3-1.3,1.2-1.5c2.9-0.7,5-2.5,5.9-5.2c2-6-1.6-11.3-7.6-12c-3.8-0.5-8.3,3.5-8.8,6.7c-0.7,4.3,0.4,7.3,4.1,9.7
		c0.7,0.4,1,0.9,0.9,1.7c-0.2,2.8,0.2,5.6,0.7,8.3c1,5,2.8,9.8,6.5,13.6c0.8,0.9,0.7,1.4-0.6,2C130.9,72.9,127.3,73.8,123.7,73.5z"
		/>
	<path class="st1" d="M165,70.6c-3.5,0.1-6,1.1-7.4,4.1c-0.3,0.7-1.6,0.9-2.2,0.5c-0.4-0.3-0.3-0.7-0.1-1c1.1-2,1.7-4.3,2.4-6.5
		c0.3-1,0.8-1.9,1.3-2.8c0.4-0.7,1.5-0.8,2.3-0.2c3.7,2.4,7.3,4.9,11,7.3c5.5,3.6,10.9,7.2,16.4,10.7c0.4,0.2,0.7,0.5,0.6,0.9
		c-0.1,0.4-0.3,0.5-0.6,0.6c-3.3,1-3.8,3.6-3.2,6c0.6,2.1,1.3,4.2,2,6.3c0.8,2.4,1.6,4.8,2.5,7.2c0.3,0.8,0.5,1.5,0.8,2.3
		c0.3,1-0.1,1.8-1,2.2c-2,0.8-4.1,1.5-6.2,2.1c-2.1,0.6-4.2,1.4-6.3,2.1c-2.7,0.9-5.4,1.8-8,2.7c-2.1,0.7-4.2,1.4-6.2,2.1
		c-1.9,0.7-2.9,0.2-3.4-1.8c-0.3-1.2-0.7-2.4-1.1-3.5c-1.2-3.5-2.3-6.9-3.5-10.4c-0.9-2.9-3.4-5.3-7.1-3.8c-0.3,0.1-0.5,0.3-0.8,0
		c-0.2-0.3,0-0.5,0.1-0.8c1.2-3.1,2.3-6.2,3.4-9.3c0.9-2.5,1.8-4.9,2.7-7.4c0.1-0.3,0.3-0.5,0.5-0.6c1.1-0.4,3.3,0.3,3.7,1.4
		c1.1,3.1,4.9,5.1,8.4,4.3c2.2-0.5,3.7-1.9,5-4c1.6-2.7,0.5-7.3-1.9-9.1C167.7,71.3,166.3,70.5,165,70.6z"/>
	<path class="st22" d="M130.4,34.1c2.5,0,4,1.3,4.8,3.3c0.4,1.1-0.3,3.4-1.3,4.3c-0.3,0.2-0.6,0.5-1,0.3c-0.4-0.2-0.2-0.5-0.2-0.9
		c0.1-0.7,0.3-1.5,0.4-2.2c0.3-1.7-0.5-2.3-1.8-2.8c-0.8-0.3-1.9,0.6-2.4,1.7c-0.4,0.9-0.3,1.8-0.5,2.7c-0.1,0.3-0.1,0.7-0.5,0.7
		c-0.3,0-0.5-0.2-0.5-0.4c-0.5-1.4-0.9-2.8,0.1-4.2C128.4,35.1,129.4,34.1,130.4,34.1z"/>
	<path class="st23" d="M167,77.9c0,2.1-1.3,3.3-3.2,2.9c-0.3-0.1-0.8-0.1-0.8-0.5c0-0.4,0.4-0.4,0.7-0.4c0.2,0,0.3,0,0.5,0
		c1.4-0.1,1.8-0.6,1.8-1.9c0-1.2-0.4-1.7-1.8-1.8c-0.2,0-0.4,0-0.6-0.1c-0.2,0-0.5-0.1-0.5-0.4c0-0.3,0.3-0.4,0.6-0.5
		c1.7-0.5,3.4,0.8,3.3,2.5C167,77.8,167,77.9,167,77.9z"/>
	<path class="st18" d="M157.7,117.8c0,0,0.1,0.1,0.1,0.1c0,0,0,0.1,0,0.1c-0.1,0-0.1,0-0.2-0.1C157.6,117.9,157.6,117.9,157.7,117.8
		z"/>
	<path d="M182.3,101.3c0.2,2.2-1.8,4.8-3.8,5.2c-2.3,0.5-4.5,1.4-6.7,2.2c-1.1,0.4-2.2,0.9-3.4,1.2c-1.6,0.4-4.5-1-5.2-3.3
		c-1.1-3.4-2.3-6.9-3.5-10.3c-0.6-1.9,0.8-4.5,3.1-5.3c3-1,6-2.1,9.1-3c0.2-0.1,0.4-0.2,0.6-0.2c2.2-1,4.8-0.2,5.9,2
		c0.6,1.2,1,2.5,1.4,3.8c0.4,1.4,0.9,2.7,1.4,4.1C181.6,99,182,100.4,182.3,101.3z"/>
	<path class="st1" d="M173.8,91.9c0.7,0.1,1,0.5,1.1,1c0.3,1.5,0.9,2.9,1.3,4.3c0.3,1.1,0.7,2.2,1.2,3.2c0.5,1.2,0.3,2.1-1,2.3
		c-1.5,0.2-2.7,0.9-4,1.4c-1.3,0.5-2.6,0.6-3.9,1.2c-0.8,0.4-1.2-0.4-1.4-1.1c-0.7-2.7-1.6-5.3-2.7-7.9c-0.4-0.9,0.3-1.2,1-1.4
		c2.2-0.7,4.4-1.4,6.6-2.1C172.7,92.5,173.2,92.1,173.8,91.9z"/>
</g>
</svg>
