<?xml version="1.0" encoding="utf-8"?>
<!-- Generator: Adobe Illustrator 19.2.1, SVG Export Plug-In . SVG Version: 6.00 Build 0)  -->
<svg version="1.1" id="Layer_2" xmlns="http://www.w3.org/2000/svg" xmlns:xlink="http://www.w3.org/1999/xlink" x="0px" y="0px"
	 viewBox="0 0 2154.8 856.8" style="enable-background:new 0 0 2154.8 856.8;" xml:space="preserve">
<style type="text/css">
	.st0{filter:url(#Adobe_OpacityMaskFilter);}
	.st1{fill:#FFFFFF;}
	.st2{mask:url(#SVGID_1_);fill:#70B577;}
	.st3{fill:#71B577;}
	.st4{fill:#70B577;}
</style>
<g>
	<defs>
		<filter id="Adobe_OpacityMaskFilter" filterUnits="userSpaceOnUse" x="11.9" y="0" width="1098.5" height="856.8">
			<feColorMatrix  type="matrix" values="1 0 0 0 0  0 1 0 0 0  0 0 1 0 0  0 0 0 1 0"/>
		</filter>
	</defs>
	<mask maskUnits="userSpaceOnUse" x="11.9" y="0" width="1098.5" height="856.8" id="SVGID_1_">
		<g class="st0">
			<polygon class="st1" points="1141.7,883.2 -12,888.2 -12,-12.4 1141.7,-7.5 			"/>
			<rect x="611.5" y="196.2" width="1269.5" height="503"/>
		</g>
	</mask>
	<path class="st2" d="M561.6,0L11.9,671.7l549.7,185.1l548.8-185.1L561.6,0z M582.6,77.4l459.5,563.8L584.5,803.4L582.6,77.4z
		 M539.5,77.4v725.8l-459.4-162L539.5,77.4z"/>
	<g>
		<path class="st3" d="M747.7,546.9c-5.4,0-9,0-9.9-6.7l-4.9-27.8c-1.8-9-2.2-9-9.9-9h-52.5c-8.5,0-8.5,0-10.3,9l-4.9,27.8
			c-0.9,6.7-4.5,6.7-9.9,6.7h-19.8c-4.9,0-8.5,0-7.6-7.6l56.6-298.6c1.3-6.7,2.7-8.1,9.9-8.1h24.2c7.2,0,8.5,1.3,9.9,8.1l56.6,298.6
			c1.3,6.7-1.8,7.6-7.6,7.6H747.7z M669.1,459.4c-1.3,9-1.3,9,7.6,9h39.5c9,0,9,0,7.6-9l-25.6-152.2c-0.4-2.2-3.1-2.2-3.6,0
			L669.1,459.4z"/>
		<path class="st3" d="M866.7,538c0,6.7-2.2,9-9,9h-19.8c-6.7,0-9-2.2-9-9V241.6c0-6.7,2.2-9,9-9h19.8c6.7,0,9,2.2,9,9v138.7
			c0,3.1,2.2,3.1,3.6,0.9l61.1-141.9c3.1-6.7,4-6.7,9.9-6.7h23.3c6.3,0,8.1,3.1,4.9,9.4L921,354.8c-0.4,1.3-0.4,3.6,0,5.8L969.5,538
			c1.3,5.8-1.3,9-8.1,9h-18c-6.3,0-10.3-3.1-11.7-9l-34.6-127.1c0-2.7-2.7-2.2-3.6-0.4l-25.1,58.4c-1.3,2.7-1.8,5.8-1.8,9.9V538z"/>
		<path class="st3" d="M1080.8,232.6c41.3,0,71.8,27.4,71.8,85.3v34.1c0,57.9-30.5,85.3-71.8,85.3h-16.2c-9,0-9,0-9,9V538
			c0,5.8-3.1,9-9,9H1027c-7.2,0-9-2.2-9-9V241.6c0-6.7,2.2-9,9-9H1080.8z M1055.7,392.9c0,9.4,0,9.4,9,9.4h16.2
			c22.9,0,34.1-16.2,34.1-48.5v-37.7c0-32.3-11.2-48.5-34.1-48.5h-16.2c-9,0-9,0-9,9V392.9z"/>
		<path class="st3" d="M1345.7,463.4c0,57.9-30.5,85.3-71.8,85.3c-41.3,0-71.8-27.4-71.8-85.3V316.2c0-57.9,30.5-85.3,71.8-85.3
			c41.3,0,71.8,27.4,71.8,85.3V463.4z M1239.8,465.2c0,32.3,11.2,48.5,34.1,48.5c22.9,0,34.1-16.2,34.1-48.5V314.4
			c0-32.3-11.2-48.5-34.1-48.5c-22.9,0-34.1,16.2-34.1,48.5V465.2z"/>
		<path class="st3" d="M1450.8,267.7c-9,0-9,0-9,9V538c0,6.7-2.2,9-9,9h-19.8c-6.7,0-9-2.2-9-9V241.6c0-6.7,2.2-9,9-9h124.8
			c6.7,0,9,2.2,9,9V538c0,6.7-2.2,9-9,9h-19.8c-6.7,0-9-2.2-9-9V276.6c0-9,0-9-9-9H1450.8z"/>
		<path class="st3" d="M1748.9,463.4c0,57.9-30.5,85.3-71.8,85.3c-41.3,0-71.8-27.4-71.8-85.3V316.2c0-57.9,30.5-85.3,71.8-85.3
			c41.3,0,71.8,27.4,71.8,85.3V463.4z M1643,465.2c0,32.3,11.2,48.5,34.1,48.5c22.9,0,34.1-16.2,34.1-48.5V314.4
			c0-32.3-11.2-48.5-34.1-48.5c-22.9,0-34.1,16.2-34.1,48.5V465.2z"/>
		<path class="st3" d="M1829.3,241.6c0-6.7,2.2-9,9-9h110c6.7,0,9,2.2,9,9V538c0,6.7-2.2,9-9,9h-19.8c-6.7,0-9-2.2-9-9V276.6
			c0-9,0-9-9-9H1876c-9,0-9,0-9,9v180.5c0,34.1-4.9,57.5-14.4,70.5c-9.4,13-26.5,19.3-52.1,19.3c-6.7,0-9-2.2-9-9v-17.1
			c0-6.7,2.2-8.5,9-9c11.2-0.4,18.9-6.3,22.5-11.7c2.2-2.7,3.6-6.7,4.5-12.1c1.8-11.2,1.8-15.7,1.8-30.1V241.6z"/>
		<path class="st3" d="M2029.1,546.9c-6.7,0-9-2.2-9-9V241.6c0-6.7,1.8-9,9-9h19.8c5.8,0,9,3.1,9,9v71.8c0,9,0,9,9,9h16.2
			c41.3,0,71.8,27.4,71.8,85.3v53.9c0,57.9-30.5,85.3-71.8,85.3H2029.1z M2057.9,502.9c0,9,0,9,9,9h16.2c22.9,0,34.1-16.2,34.1-48.5
			V406c0-32.3-11.2-48.5-34.1-48.5h-16.2c-9,0-9,0-9,9.4V502.9z"/>
	</g>
	<g>
		<path class="st4" d="M729.9,635.6l-9.1,27.6h-11.7l29.8-87.6h13.7l29.9,87.6h-12.1l-9.4-27.6H729.9z M758.7,626.7l-8.6-25.2
			c-2-5.7-3.3-10.9-4.6-16h-0.3c-1.3,5.2-2.7,10.5-4.4,15.9l-8.6,25.4H758.7z"/>
		<path class="st4" d="M834.6,600.2v9.2h-27.3v53.7H796v-62.9H834.6z"/>
		<path class="st4" d="M851.4,633.8c0.3,15.5,10.1,21.8,21.6,21.8c8.2,0,13.1-1.4,17.4-3.3l2,8.2c-4,1.8-10.9,3.9-20.9,3.9
			c-19.4,0-30.9-12.7-30.9-31.7c0-19,11.2-33.9,29.5-33.9c20.5,0,26,18.1,26,29.6c0,2.3-0.3,4.2-0.4,5.3H851.4z M884.9,625.6
			c0.1-7.3-3-18.6-15.9-18.6c-11.6,0-16.6,10.7-17.6,18.6H884.9z"/>
		<path class="st4" d="M922.5,600.2v25.4h29.9v-25.4h11.3v62.9h-11.3v-28.5h-29.9v28.5h-11.3v-62.9H922.5z"/>
		<path class="st4" d="M1025.8,600.2v9.1h-19.6v53.8h-11.3v-53.8h-19.6v-9.1H1025.8z"/>
		<path class="st4" d="M1080.3,660.8c-3,1.6-9.6,3.6-18.1,3.6c-19,0-31.3-12.9-31.3-32.1c0-19.4,13.3-33.4,33.8-33.4
			c6.8,0,12.7,1.7,15.9,3.3l-2.6,8.8c-2.7-1.6-7-3-13.3-3c-14.4,0-22.2,10.7-22.2,23.8c0,14.6,9.4,23.5,21.8,23.5
			c6.5,0,10.8-1.7,14-3.1L1080.3,660.8z"/>
		<path class="st4" d="M1139.6,600.2v9.1h-19.6v53.8h-11.3v-53.8H1089v-9.1H1139.6z"/>
		<path class="st4" d="M1150.6,601c4.4-0.8,12.6-1.4,20-1.4c10.5,0,28,1.7,28,15.7c0,7.8-6,12.6-13.1,14.2v0.3
			c9.2,1.3,16,6.5,16,15.6c0,16.5-20.8,18.6-33.2,18.6c-7,0-14.3-0.5-17.7-0.8V601z M1161.4,655.6c3.3,0.4,5.6,0.5,9.2,0.5
			c7.7,0,19.1-1.8,19.1-10.9s-9.1-11.1-20-11.1h-8.3V655.6z M1161.5,626.6h8.6c8.5,0,17.2-2.5,17.2-9.9c0-6.2-5.5-9.2-16.9-9.2
			c-3.8,0-6.1,0.3-8.8,0.5V626.6z"/>
		<path class="st4" d="M1274.1,631.2c0,23.3-16.1,33.4-31.3,33.4c-17,0-30.2-12.5-30.2-32.4c0-21.1,13.8-33.4,31.2-33.4
			C1261.9,598.8,1274.1,611.9,1274.1,631.2z M1224.2,631.8c0,13.8,7.9,24.2,19.1,24.2c10.9,0,19.1-10.3,19.1-24.4
			c0-10.7-5.3-24.2-18.9-24.2S1224.2,619.8,1224.2,631.8z"/>
		<path class="st4" d="M1329.8,600.2v25.4h29.9v-25.4h11.3v62.9h-11.3v-28.5h-29.9v28.5h-11.3v-62.9H1329.8z"/>
		<path class="st4" d="M1397.4,633.8c0.3,15.5,10.1,21.8,21.6,21.8c8.2,0,13.1-1.4,17.4-3.3l2,8.2c-4,1.8-10.9,3.9-20.9,3.9
			c-19.4,0-30.9-12.7-30.9-31.7c0-19,11.2-33.9,29.5-33.9c20.5,0,26,18.1,26,29.6c0,2.3-0.3,4.2-0.4,5.3H1397.4z M1430.9,625.6
			c0.1-7.3-3-18.6-15.9-18.6c-11.6,0-16.6,10.7-17.6,18.6H1430.9z"/>
		<path class="st4" d="M1506.6,600.2v54.3l6.5,0.1l-0.6,28.5h-9l-0.5-20h-43.6l-0.5,20h-9l-0.5-28.5l5.3-0.1c2.7-4,4.8-8.3,6.2-12.9
			c2.5-7.8,3.6-16.3,3.6-25.1v-16.4H1506.6z M1474.7,619.3c0,8.3-1.2,16.4-3.3,23.4c-1.3,4.3-3.1,8.2-5.1,11.7h29v-45.5h-20.7V619.3
			z"/>
		<path class="st4" d="M1527.7,601c4.4-0.8,12.6-1.4,20-1.4c10.5,0,28,1.7,28,15.7c0,7.8-6,12.6-13.1,14.2v0.3
			c9.2,1.3,16,6.5,16,15.6c0,16.5-20.8,18.6-33.2,18.6c-7,0-14.3-0.5-17.7-0.8V601z M1538.5,655.6c3.3,0.4,5.6,0.5,9.2,0.5
			c7.7,0,19.1-1.8,19.1-10.9s-9.1-11.1-20-11.1h-8.3V655.6z M1538.7,626.6h8.6c8.5,0,17.2-2.5,17.2-9.9c0-6.2-5.5-9.2-16.9-9.2
			c-3.8,0-6.1,0.3-8.8,0.5V626.6z"/>
		<path class="st4" d="M1604.8,600.2v26.5c0,10-0.1,16.3-0.6,25.2l0.4,0.1c3.8-7.7,6-12.1,10.1-19.4l19.6-32.5h13.4v62.9h-10.9
			v-26.7c0-10.3,0.3-15.6,0.8-25.7h-0.4c-4,8.1-6.8,13.1-10.4,19.5c-6,9.8-12.9,21.8-19.6,32.9H1594v-62.9H1604.8z"/>
		<path class="st4" d="M1673,600.2l20.8,27.4h2.3v-27.4h10.9v27.4h2.2l20.8-27.4h13.1l-24.8,28.6c9.5,1,15.1,6.6,18.9,16.6
			c2.2,6.1,4.3,12.7,6.9,17.7h-11.4c-2.1-3.8-3.9-9-5.7-14.4c-3.9-10.3-9.8-13.4-17.9-13.4h-2v27.8h-10.9v-27.8h-2.1
			c-8.8,0-14.2,3.3-18.1,13.5c-2.1,5.5-3.8,10.4-6,14.3h-11.1c2.6-5.1,4.7-11.7,6.9-17.6c3.9-10.1,9.5-15.7,19-16.8l-25-28.6H1673z"
			/>
		<path class="st4" d="M1766.2,600.2v26.5c0,10-0.1,16.3-0.7,25.2l0.4,0.1c3.8-7.7,6-12.1,10.1-19.4l19.6-32.5h13.4v62.9h-10.9
			v-26.7c0-10.3,0.3-15.6,0.8-25.7h-0.4c-4,8.1-6.8,13.1-10.4,19.5c-6,9.8-12.9,21.8-19.6,32.9h-13.1v-62.9H1766.2z"/>
		<path class="st4" d="M1829.6,600.2h14l11.4,31.7c1.6,4.7,4.3,12.4,5.7,17.3h0.3c1.4-4.7,4.9-14.7,7.4-21.6l10.1-27.4h14.2
			l4.4,62.9h-10.9l-1.4-30c-0.4-6.8-0.9-14.8-1.2-22.5h-0.4c-1.7,5.7-3.4,10.8-6.9,20.4l-12.1,31.7h-8.3l-11.2-31.1
			c-2-6-4.7-15.1-6.2-20.9h-0.5c-0.3,7.4-0.6,15.7-1,22.6l-1.6,29.8h-10.5L1829.6,600.2z"/>
		<path class="st4" d="M1970.3,631.2c0,23.3-16.1,33.4-31.3,33.4c-17,0-30.2-12.5-30.2-32.4c0-21.1,13.8-33.4,31.2-33.4
			C1958,598.8,1970.3,611.9,1970.3,631.2z M1920.3,631.8c0,13.8,7.9,24.2,19.1,24.2c10.9,0,19.1-10.3,19.1-24.4
			c0-10.7-5.3-24.2-18.9-24.2S1920.3,619.8,1920.3,631.8z"/>
		<path class="st4" d="M2030.8,660.8c-3,1.6-9.6,3.6-18.1,3.6c-19,0-31.3-12.9-31.3-32.1c0-19.4,13.3-33.4,33.8-33.4
			c6.8,0,12.7,1.7,15.9,3.3l-2.6,8.8c-2.7-1.6-7-3-13.3-3c-14.4,0-22.2,10.7-22.2,23.8c0,14.6,9.4,23.5,21.8,23.5
			c6.5,0,10.8-1.7,14-3.1L2030.8,660.8z"/>
		<path class="st4" d="M2090.1,600.2v9.1h-19.6v53.8h-11.3v-53.8h-19.6v-9.1H2090.1z"/>
		<path class="st4" d="M2112,600.2v26.5c0,10-0.1,16.3-0.7,25.2l0.4,0.1c3.8-7.7,6-12.1,10.1-19.4l19.6-32.5h13.4v62.9h-10.9v-26.7
			c0-10.3,0.3-15.6,0.8-25.7h-0.4c-4,8.1-6.8,13.1-10.4,19.5c-6,9.8-12.9,21.8-19.6,32.9h-13.1v-62.9H2112z"/>
	</g>
</g>
</svg>
