<?xml version="1.0" encoding="utf-8"?>
<!-- Generator: Adobe Illustrator 18.0.0, SVG Export Plug-In . SVG Version: 6.00 Build 0)  -->
<!DOCTYPE svg PUBLIC "-//W3C//DTD SVG 1.1//EN" "http://www.w3.org/Graphics/SVG/1.1/DTD/svg11.dtd">
<svg version="1.1" id="Слой_1" xmlns="http://www.w3.org/2000/svg" xmlns:xlink="http://www.w3.org/1999/xlink" x="0px" y="0px"
	 viewBox="0 0 746.1 139" enable-background="new 0 0 746.1 139" xml:space="preserve">
<g>
	<path fill="#06627E" d="M163.4,72.7V16.2h11.4c1.1,0,2,0.4,2.8,1.1c0.8,0.8,1.2,1.7,1.2,2.8v42.2l24-42.1c0.6-1.1,1.5-2,2.7-2.8
		c1.1-0.8,2.2-1.2,3.1-1.2H221c1.1,0,2,0.4,2.8,1.2c0.8,0.8,1.1,1.7,1.1,2.8v56.5h-11.4c-1.1,0-2-0.4-2.8-1.2
		c-0.8-0.8-1.2-1.7-1.2-2.8V33.5l-22,39.1c-0.6,1.1-1.6,2-2.7,2.8s-2.3,1.2-3.4,1.2h-14c-1.1,0-2-0.4-2.8-1.2
		C163.8,74.7,163.4,73.8,163.4,72.7"/>
	<path fill="#06627E" d="M242.7,32.6c2.9-10.9,12.2-16.4,28-16.4h21.1c1,0,1.8,0.4,2.5,1.2c0.7,0.8,1,1.7,1,2.8v56.5h-11.9
		c-1.1,0-2-0.4-2.8-1.2c-0.8-0.8-1.2-1.7-1.2-2.8V28.1h-10.3c-2.7,0-5,0.8-7,2.3c-2,1.5-3.4,3.6-4.1,6.2l-9.6,36.1
		c-0.3,1.1-1.9,2.8-1.9,2.8s-2,1.1-3.1,1.1h-12.5L242.7,32.6z"/>
	<path fill="#06627E" d="M313.1,32.6c2.9-10.9,12.2-16.4,28-16.4h21.1c1,0,1.8,0.4,2.5,1.2c0.7,0.8,1,1.7,1,2.8v56.5h-11.9
		c-1.1,0-2-0.4-2.8-1.2c-0.8-0.8-1.2-1.7-1.2-2.8V28.1h-10.3c-2.7,0-5,0.8-7,2.3c-2,1.5-3.4,3.6-4.1,6.2l-9.6,36.1
		c-0.3,1.1-0.9,2.1-1.9,2.8c-1,0.7-2,1.1-3.1,1.1h-12.3L313.1,32.6z"/>
	<path fill="#06627E" d="M377.7,72.7V16.2h11.4c1.1,0,2,0.4,2.8,1.1c0.8,0.8,1.2,1.7,1.2,2.8v42.2l24-42.1c0.6-1.1,1.5-2,2.7-2.8
		c1.1-0.8,2.2-1.2,3.1-1.2h12.4c1.1,0,2,0.4,2.8,1.2c0.8,0.8,1.1,1.7,1.1,2.8v56.5h-11.4c-1.1,0-2-0.4-2.8-1.2
		c-0.8-0.8-1.2-1.7-1.2-2.8V33.5l-22,39.1c-0.6,1.1-1.6,2-2.7,2.8s-2.3,1.2-3.4,1.2h-14c-1.1,0-2-0.4-2.8-1.2
		C378.1,74.7,377.7,73.8,377.7,72.7"/>
	<path fill="#06627E" d="M445.3,72.7v-4c0-1.1,0.4-2,1.2-2.8c0.8-0.8,1.7-1.1,2.8-1.1h3.3l7.8-31.9c2.7-11.1,11.8-16.6,27.4-16.6
		h22.8c1.1,0,2,0.4,2.8,1.1c0.8,0.8,1.2,1.7,1.2,2.8v56.6h-65.3h-4V72.7z M468.9,64.7h29.8V28.1h-12.5c-2.6,0-4.8,0.7-6.6,2.2
		c-1.7,1.5-2.9,3.5-3.6,6.1L468.9,64.7z"/>
	<path fill="#06627E" d="M526.6,72.7V16.2H538c1.1,0,2,0.4,2.8,1.1c0.8,0.8,1.2,1.7,1.2,2.8v42.2l24-42.1c0.6-1.1,1.5-2,2.7-2.8
		c1.1-0.8,2.2-1.2,3.1-1.2h12.4c1.1,0,2,0.4,2.8,1.2c0.8,0.8,1.1,1.7,1.1,2.8v56.5h-11.4c-1.1,0-2-0.4-2.8-1.2
		c-0.8-0.8-1.2-1.7-1.2-2.8V33.5l-22,39.1c-0.6,1.1-1.6,2-2.7,2.8c-1.2,0.8-2.3,1.2-3.4,1.2h-14c-1.1,0-2-0.4-2.8-1.2
		S526.6,73.8,526.6,72.7"/>
	<path fill="#06627E" d="M595.3,20.2c-0.4-1.1-0.4-2,0-2.8c0.4-0.8,1.2-1.2,2.3-1.2h8.9c2.7,0,4.6,1.3,5.6,3.8l4.9,11.7
		c1.4,3.4,3.2,5.9,5.4,7.6c2.2,1.7,5,2.5,8.6,2.5h5.2l7.6-21.8c0.4-1.2,1.1-2.2,2.1-2.9c1-0.7,2.1-1.1,3.2-1.1h8.5
		c1.1,0,1.9,0.4,2.4,1.1c0.5,0.8,0.6,1.7,0.3,2.7l-13.8,39.4c-1.9,5.5-4.8,9.8-8.6,12.8c-3.9,3-9.2,4.5-16.2,4.5h-14.2l0-8.7
		c0-1.1,0.4-2,1.1-2.8c0.8-0.8,1.7-1.2,2.9-1.2h1.3c0.8,0,1.9,0.1,3.5,0.4c1.6,0.3,2.8,0.4,3.6,0.4h0.9c5.6,0,9.4-3.6,11.5-10.9
		h-3.6c-7.1,0-12.6-1.4-16.6-4.3c-4-2.9-7.4-7.6-10.2-14.1L595.3,20.2z"/>
	<path fill="#06627E" d="M667.4,16.2h21.1c1.1,0,2.1,0.4,3.1,1.2c1,0.8,1.6,1.7,2,2.8l12.4,36l12.5-36c0.3-1.1,1-2,2-2.8
		c1-0.8,2-1.2,3.1-1.2h21.1v60.5h-11.6c-1.1,0-2-0.4-2.8-1.2c-0.8-0.8-1.2-1.7-1.2-2.9V31.4l-14.9,41.5c-0.4,1-1.1,1.9-2.1,2.7
		c-1,0.7-2,1.1-3.1,1.1h-6c-1.1,0-2.1-0.4-3.1-1.1c-1-0.7-1.7-1.6-2.1-2.7L683,31.4v41.2c0,1.2-0.4,2.1-1.2,2.9
		c-0.8,0.8-1.7,1.2-2.8,1.2h-11.6V16.2z"/>
	<polygon fill="#70B7BE" points="1.1,26.9 1.1,33.9 32.4,25.7 32.4,18.8 	"/>
	<polygon fill="#70B7BE" points="100.3,8 100.3,1.1 62.4,10.9 58.7,18.8 62.7,17.8 	"/>
	<polygon fill="#70B7BE" points="1.1,41.6 1.1,48.5 32.4,40.4 32.4,33.4 	"/>
	<polygon fill="#70B7BE" points="100.3,22.7 100.3,15.7 56.7,25.6 53.6,33.4 	"/>
	<polygon fill="#70B7BE" points="100.3,39.6 100.3,32.6 49.6,43.9 46.8,51.1 	"/>
	<polygon fill="#70B7BE" points="0.9,54.6 0.9,61.5 32.4,54.6 32.4,47.6 	"/>
	<polygon fill="#70B7BE" points="100.3,54.5 100.3,47.5 43.5,58.3 41.1,65.7 	"/>
	<polygon fill="#70B7BE" points="0.9,66.5 0.9,73.4 32.4,67.4 32.4,60.5 	"/>
	<polygon fill="#70B7BE" points="100.3,70.8 100.3,63.8 37.8,75.3 35.4,81.6 	"/>
	<polygon fill="#70B7BE" points="1.1,78.8 1.1,85.8 32.4,81.1 32.4,74.1 	"/>
	<polygon fill="#70B7BE" points="53.2,85.7 32.4,88.1 32.4,88.1 30.5,88.4 30.4,88.4 0.9,91.9 0.9,98.9 27.8,95.6 50.1,93 	"/>
	<polyline fill="#70B7BE" points="63,91.4 100.3,86.9 100.3,80 63.3,84.4 	"/>
	<polyline fill="#70B7BE" points="62.5,106.2 100.3,102.6 100.3,95.6 62.7,99.2 	"/>
	<polygon fill="#70B7BE" points="47.4,100.3 31.4,102.2 0.9,105.1 0.9,112.1 32.4,109.1 44.2,107.9 	"/>
	<polygon fill="#70B7BE" points="0.9,118.1 0.9,125 37.8,122.8 40.8,115.6 	"/>
	<polygon fill="#70B7BE" points="100.3,119 100.3,112 62.4,114.3 62.4,121.3 	"/>
	<polygon fill="#70B7BE" points="100.3,134.4 100.3,127.5 62.4,128.7 62.4,135.7 	"/>
	<polygon fill="#70B7BE" points="0.9,130.8 0.9,137.7 32.4,136.7 34.9,129.7 	"/>
	<polygon fill="#06627E" points="32.1,18.8 32.1,25.7 54.3,31.9 56.7,25.6 	"/>
	<polygon fill="#06627E" points="32.1,33.4 32.1,40.4 49.1,45.1 51.6,38.8 	"/>
	<polygon fill="#06627E" points="32.1,47.6 32.1,54.6 44.3,57.4 46.8,51.1 	"/>
	<polygon fill="#06627E" points="32.1,60.5 32.1,67.4 39.8,69 42.3,62.5 	"/>
	<polygon fill="#06627E" points="32.1,74.1 32.1,81.1 35.3,81.9 37.8,75.5 	"/>
	<polygon fill="#06627E" points="62.4,129.5 62.4,123.3 34.9,129.7 32.4,136.7 	"/>
	<polygon fill="#06627E" points="62.4,117 62.4,110.2 40.9,115.4 37.8,122.7 	"/>
	<polygon fill="#06627E" points="62.6,103.3 62.8,96.3 47.4,100.3 44.2,107.9 	"/>
	<polygon fill="#06627E" points="63,90.6 63.3,83.7 53.2,85.7 50.1,93 	"/>
	<polygon fill="#06627E" points="62.8,77 62.8,70.7 57.2,71.7 54.4,78.4 	"/>
	<polygon fill="#06627E" points="100.3,1.1 100.3,8 133.5,19.2 133.5,12.6 	"/>
	<polygon fill="#06627E" points="100.3,15.7 100.3,22.7 133.5,32.1 133.5,25.9 	"/>
	<polygon fill="#06627E" points="100.3,32.6 100.3,39.6 133.5,47 133.5,40.4 	"/>
	<polygon fill="#06627E" points="100.3,47.5 100.3,54.5 133.5,61.9 133.5,55.5 	"/>
	<polygon fill="#06627E" points="100.3,63.8 100.3,70.8 133.5,75.8 133.5,69.1 	"/>
	<polygon fill="#06627E" points="100.3,79.9 100.3,86.9 133.5,88.7 133.5,82 	"/>
	<polygon fill="#06627E" points="100.3,95.6 100.3,102.6 133.5,101.8 133.5,95.6 	"/>
	<polygon fill="#06627E" points="100.3,112 100.3,118.9 133.4,115.8 133.4,109.2 	"/>
	<polygon fill="#06627E" points="100.3,127.5 100.3,134.4 133.5,128.2 133.5,121.8 	"/>
	<path fill="#06627E" d="M168.8,121.6c-1.3-0.7-2.5-1.7-3.7-3.1l2.7-2.1c0.6,1,1.3,1.8,2.3,2.4c0.9,0.6,2,0.9,3.2,0.9
		c1.9,0,3.4-0.3,4.2-0.9c0.9-0.6,1.3-1.5,1.3-2.6c0-1.2-0.4-2-1.2-2.4c-0.8-0.4-2-0.7-3.7-0.7h-2.6v-3h3.1c1.2-0.2,2-0.6,2.6-1.1
		c0.6-0.5,0.8-1.3,0.8-2.2c0-0.9-0.3-1.7-1-2.2c-0.7-0.5-1.8-0.8-3.3-0.8c-1.1,0-2.2,0.3-3.2,0.8c-1,0.6-1.8,1.3-2.3,2.3l-2.8-1.6
		c0.9-1.5,2.1-2.7,3.5-3.4c1.4-0.8,3-1.1,4.8-1.1c2.5,0,4.4,0.5,5.8,1.4c1.3,1,2,2.4,2,4.4c0,1.2-0.3,2.2-0.8,3.1
		c-0.5,0.8-1.5,1.4-2.8,1.7c1,0.1,1.8,0.4,2.5,0.8c0.7,0.4,1.3,1,1.6,1.7c0.4,0.7,0.6,1.5,0.6,2.3c0,2.1-0.8,3.7-2.3,4.7
		c-1.6,1.1-3.7,1.6-6.5,1.6C171.7,122.7,170.1,122.3,168.8,121.6"/>
	<path fill="#06627E" d="M189.6,121.9c-1-0.5-1.9-1.3-2.5-2.2c-0.6-1-0.9-2-0.9-3.3c0-2.2,0.7-3.7,2.1-4.7s3.3-1.5,5.7-1.5h6.4
		c0-2.1-0.4-3.6-1.2-4.7c-0.8-1.1-2.2-1.6-4.1-1.6c-1.1,0-2.2,0.3-3.2,0.9c-1,0.6-1.7,1.3-2.3,2.2l-2.5-1.9c1-1.4,2.2-2.4,3.5-3.1
		c1.3-0.7,2.9-1,4.7-1c1.7,0,3.2,0.4,4.5,1.1c1.2,0.7,2.2,1.7,2.8,3c0.6,1.3,1,2.8,1,4.5v12.9h-2.8l-0.2-3.6c-0.9,1.4-2,2.4-3.2,3.1
		c-1.2,0.6-2.7,1-4.3,1C191.8,122.7,190.7,122.4,189.6,121.9 M197.2,118.6c1-0.6,1.8-1.5,2.3-2.5c0.6-1,0.9-2.1,0.9-3.2h-6.1
		c-1.3,0-2.4,0.3-3.2,0.9c-0.9,0.6-1.3,1.5-1.3,2.6c0,1.1,0.4,1.9,1.2,2.4c0.8,0.5,1.8,0.8,2.9,0.8
		C195.1,119.6,196.2,119.3,197.2,118.6"/>
	<path fill="#06627E" d="M213.3,121.2c-1.4-1-2.5-2.3-3.2-4c-0.7-1.7-1.1-3.5-1.1-5.4c0-1.9,0.4-3.7,1.1-5.4c0.7-1.7,1.8-3,3.2-4
		c1.4-1,3.1-1.5,5.1-1.5c1.9,0,3.6,0.5,5,1.5c1.4,1,2.6,2.4,3.3,4.1l-3.2,1.3c-0.3-1.2-0.9-2.2-1.8-2.9c-0.9-0.7-2-1.1-3.2-1.1
		c-1.3,0-2.4,0.4-3.3,1.1c-0.9,0.8-1.5,1.7-1.9,2.9c-0.4,1.2-0.6,2.5-0.6,3.8c0,1.4,0.2,2.6,0.6,3.8c0.4,1.2,1,2.2,1.9,2.9
		c0.9,0.8,2,1.1,3.3,1.1c1.2,0,2.3-0.4,3.2-1.1c0.9-0.7,1.5-1.7,1.9-2.9l3,1.3c-0.6,1.8-1.7,3.2-3.1,4.2c-1.4,1-3.1,1.5-5,1.5
		C216.4,122.7,214.7,122.2,213.3,121.2"/>
	<polygon fill="#06627E" points="235.7,103.9 228.7,103.9 228.7,101.2 246.1,101.2 246.1,103.9 239.1,103.9 239.1,122.2 
		235.7,122.2 	"/>
	<path fill="#06627E" d="M250.2,101.2h3.4v2.8c0.7-1,1.6-1.8,2.7-2.4c1.1-0.6,2.3-0.8,3.8-0.8c1.8,0,3.3,0.5,4.6,1.5
		c1.3,1,2.3,2.3,3,4c0.7,1.7,1,3.5,1,5.6c0,2.1-0.3,3.9-1,5.6c-0.7,1.7-1.7,3-3,3.9c-1.3,1-2.8,1.5-4.6,1.5c-2.8,0-5-1.1-6.5-3.2v12
		h-3.4V101.2z M262.6,118.5c0.9-0.7,1.5-1.7,2-2.8c0.4-1.2,0.6-2.5,0.6-4c0-1.5-0.2-2.8-0.6-4s-1.1-2.2-2-2.9
		c-0.9-0.7-2-1.1-3.3-1.1c-1.3,0-2.4,0.4-3.3,1.1c-0.9,0.7-1.5,1.7-1.9,2.9c-0.4,1.2-0.6,2.5-0.6,4c0,1.5,0.2,2.8,0.6,4
		c0.4,1.2,1.1,2.1,1.9,2.8c0.9,0.7,2,1.1,3.3,1.1C260.6,119.6,261.7,119.2,262.6,118.5"/>
	<path fill="#06627E" d="M278,121.2c-1.5-1-2.7-2.3-3.6-3.9c-0.9-1.7-1.3-3.5-1.3-5.5c0-2,0.4-3.8,1.3-5.5c0.9-1.7,2.1-3,3.6-3.9
		c1.5-1,3.3-1.5,5.3-1.5c2,0,3.7,0.5,5.3,1.5c1.6,1,2.8,2.3,3.6,4c0.9,1.7,1.3,3.5,1.3,5.5c0,2-0.4,3.8-1.3,5.5
		c-0.9,1.7-2.1,3-3.6,3.9c-1.6,1-3.3,1.5-5.3,1.5C281.3,122.7,279.5,122.2,278,121.2 M286.9,118.6c0.9-0.7,1.6-1.7,2.1-2.8
		s0.7-2.5,0.7-3.9c0-1.4-0.2-2.8-0.7-3.9s-1.1-2.1-2.1-2.8c-0.9-0.7-2.1-1.1-3.6-1.1c-1.4,0-2.6,0.4-3.6,1.1
		c-0.9,0.7-1.6,1.7-2.1,2.8c-0.4,1.2-0.7,2.5-0.7,3.9c0,1.4,0.2,2.8,0.7,3.9c0.4,1.2,1.1,2.1,2.1,2.8c0.9,0.7,2.1,1.1,3.6,1.1
		C284.7,119.6,285.9,119.3,286.9,118.6"/>
	<path fill="#06627E" d="M299.2,101.2h3.4v13.7c0,0.7-0.1,1.6-0.2,2.5h0.2l10-16.2h3.9v21.1h-3.4v-13.7c0-0.7,0.1-1.5,0.2-2.5h-0.2
		l-10,16.2h-3.9V101.2z M304.4,97.5c-1-0.4-1.7-1.1-2.3-2c-0.5-0.9-0.8-1.9-0.8-3.1h2.7c0,0.7,0.2,1.2,0.5,1.8
		c0.3,0.5,0.8,0.9,1.3,1.2c0.6,0.3,1.2,0.4,1.9,0.4c0.7,0,1.3-0.1,1.8-0.4c0.6-0.3,1-0.7,1.3-1.2c0.3-0.5,0.5-1.1,0.5-1.7h2.7
		c0,1.2-0.3,2.2-0.8,3.1c-0.5,0.9-1.3,1.5-2.3,2c-1,0.4-2.1,0.7-3.3,0.7C306.5,98.1,305.4,97.9,304.4,97.5"/>
	<polygon fill="#06627E" points="349.7,122.2 323.9,122.2 323.9,101.2 327.4,101.2 327.4,119.5 335.2,119.5 335.2,101.2 
		338.7,101.2 338.7,119.5 346.6,119.5 346.6,101.2 350,101.2 350,119.5 353.1,119.5 353.1,128.7 349.7,128.7 	"/>
	<path fill="#06627E" d="M356.8,101.2h3.4v13.7c0,0.7-0.1,1.6-0.2,2.5h0.2l10-16.2h3.9v21.1h-3.4v-13.7c0-0.7,0.1-1.5,0.2-2.5h-0.2
		l-10,16.2h-3.9V101.2z"/>
	<path fill="#06627E" d="M381.5,101.2h3.4v7.8h2.5l4.7-7.8h4.2l-5.5,8.4c0.7,0,1.3,0.3,1.9,1c0.6,0.7,1,1.5,1.4,2.4l3.5,9.2h-4
		l-2.6-7.6c-0.3-1-0.8-1.8-1.3-2.2c-0.5-0.5-1.2-0.7-2-0.7h-2.8v10.5h-3.4V101.2z"/>
</g>
</svg>
